<?xml version="1.0" encoding="utf-8"?>
<!-- Generator: Adobe Illustrator 15.0.2, SVG Export Plug-In . SVG Version: 6.00 Build 0)  -->
<!DOCTYPE svg PUBLIC "-//W3C//DTD SVG 1.1//EN" "http://www.w3.org/Graphics/SVG/1.1/DTD/svg11.dtd">
<svg version="1.1" id="Ebene_1" xmlns="http://www.w3.org/2000/svg" xmlns:xlink="http://www.w3.org/1999/xlink" x="0px" y="0px"
	 width="297.64px" height="104.544px" viewBox="0 0 297.64 104.544" enable-background="new 0 0 297.64 104.544"
	 xml:space="preserve">
<path fill-rule="evenodd" clip-rule="evenodd" fill="none" stroke="#FFFFFF" stroke-width="1.2" stroke-miterlimit="10" d="
	M155.744,61.202c4.178,0.004,11.217-1.613,17.682-8.391c1.08,0.015,2.426,6.65-2.465,10.85c-3.115,2.676-11.348,7.645-12.436,7.863
	c0.295,5.877-3.463,9.854-4.631,15.344c-0.244,1.143-0.16,2.193-0.34,3.611c-0.627,4.979-0.02,10.098-8.67,10.098"/>
<path fill-rule="evenodd" clip-rule="evenodd" fill="none" stroke="#FFFFFF" stroke-width="1.2" stroke-miterlimit="10" d="
	M135.745,61.202c-4.175,0.008-11.226-1.604-17.701-8.391c-1.081,0.015-2.426,6.65,2.465,10.85
	c3.115,2.676,11.348,7.645,12.436,7.863c-0.295,5.877,3.462,9.854,4.631,15.344c0.243,1.143,0.159,2.193,0.338,3.611
	c0.627,4.979,0.02,10.098,8.671,10.098"/>
<g>
	<g>
		<path fill-rule="evenodd" clip-rule="evenodd" fill="none" stroke="#FFFFFF" stroke-miterlimit="10" d="M136.362,4.752
			c-3.722,3.604-8.826,10.055-7.759,26.951c0.596,2.955,7.083,16.948,7.741,18.513c1.466,3.489,1.477,2.891,4.026,7.358
			c1.363,2.514,1.288,3.318,2.162,5.216c-0.735,2.452-5.328,1.527-6.77,0.333c0.139-0.664,0.179-1.405,0.113-2.156
			c-0.2-2.258-1.362-4.598-3.688-5.115c-4.613-1.033-9.543-0.887-12.669-3.487c-5.72-4.759-3.25-10.075-3.25-10.075
			c1.306-1.676-0.473,3.943,4.916,7.946c2.977,2.212,9.536,2.366,10.82,1.7c1.503-1.854-5.97-16.88-9.289-18.012
			c-1.19-0.801-5.248-1.922-7.248-4.73c-2.08-2.922-2.066-7.523-1.266-7.527c0.307-0.002,0.852,4.516,3.093,6.273
			c2.089,1.64,4.391,2.405,6.121,2.602c2.41-1.511,1.391-22.246,12.794-26.077C136.348,4.417,136.4,4.588,136.362,4.752z"/>
	</g>
</g>
<g>
	<g>
		<path fill-rule="evenodd" clip-rule="evenodd" fill="none" stroke="#FFFFFF" stroke-miterlimit="10" d="M155.502,4.464
			c11.404,3.831,10.385,24.566,12.795,26.077c1.729-0.196,4.033-0.962,6.121-2.602c2.24-1.758,2.785-6.275,3.092-6.273
			c0.801,0.004,0.814,4.605-1.264,7.527c-2.002,2.809-6.061,3.93-7.248,4.73c-3.32,1.132-10.795,16.158-9.291,18.012
			c1.285,0.666,7.844,0.512,10.82-1.7c5.387-4.003,3.611-9.622,4.916-7.946c0,0,2.469,5.316-3.252,10.075
			c-3.127,2.601-8.055,2.454-12.668,3.487c-3.1,0.69-4.133,4.613-3.576,7.271c-1.441,1.194-6.035,2.119-6.77-0.333
			c0.874-1.897,0.799-2.702,2.163-5.216c2.549-4.468,2.559-3.869,4.025-7.358c0.658-1.564,7.145-15.558,7.74-18.513
			c1.068-16.896-4.037-23.348-7.758-26.951C155.309,4.588,155.361,4.417,155.502,4.464z"/>
	</g>
</g>
<text transform="matrix(1.671 0 0 1 0 69.8018)" fill="#FFFFFF" font-family="'ClementePDaa-Hairline'" font-size="67.3115">JA</text>
<text transform="matrix(1.671 0 0 1 180.9541 69.4521)"><tspan x="0" y="0" fill="#FFFFFF" font-family="'ClementePDaa-Hairline'" font-size="64.1914">E</tspan><tspan x="31.71" y="0" fill="#FFFFFF" font-family="'ClementePDaa-Hairline'" font-size="64.1914" letter-spacing="-19.15"> </tspan><tspan x="30.297" y="0" fill="#FFFFFF" font-family="'ClementePDaa-Hairline'" font-size="64.1914">S</tspan></text>
</svg>
